<?xml version="1.0" encoding="utf-8"?>
<!-- Generator: Adobe Illustrator 25.0.0, SVG Export Plug-In . SVG Version: 6.00 Build 0)  -->
<svg version="1.1" id="Capa_1" xmlns="http://www.w3.org/2000/svg" xmlns:xlink="http://www.w3.org/1999/xlink" x="0px" y="0px"
	 viewBox="0 0 595.3 595.3" style="enable-background:new 0 0 595.3 595.3;" xml:space="preserve">
<style type="text/css">
	.st0{fill:#164194;}
	.st1{fill:#4A96D2;}
</style>
<g>
	<path class="st0" d="M295.7,395.4l31.1-110.5c0,0,5.9-24.8,12.7-36.9c6.8-12.1,20.5-17.1,24.8-17.5c7.5-0.7,14.6-0.1,18.9,1.3
		c7.4,2.5,10.6,7.7,11.1,9.9c2.7,10.6-5.2,15.2-10.4,15.4c-5.8,0.3-9.3-2.9-10.1-5c-0.9-2.3-1.4-6.8,1.3-9.4c1.9-1.9,1-5.7-0.4-6.7
		c0,0-5.2-1.7-11,2.2c-3.9,2.5-9,14.2-10,17.5c-0.6,1.9-5.6,22.1-5.6,22.1l38.5,0.1l-17.1,59.1h-18.2l11.9-49.8h-18.5l-29.2,108.1
		L295.7,395.4z"/>
	<path class="st0" d="M319.7,266.8c-4.4-14.3-27.3-15.7-27.3-15.7l-30.1-0.4l-24,87h20l7.3-28.4c0,0,10.4,0.3,18.2-0.8
		c19.6-2.7,27-10.8,27-10.8C314,294.2,324.1,281.2,319.7,266.8z M295.1,288.8c0,0-4,7-13.1,8.9c-1.5,0.3-3.3,1-12.9,0.9l10.5-38.9
		h8.1c6,0.7,11.3,2.9,12.9,9C301.9,273.5,296.9,286.6,295.1,288.8z"/>
	<polygon class="st0" points="393.3,278.1 444.5,278.1 406.7,328.4 434.2,328.4 431.5,337.9 377.3,337.9 416.5,288.8 390.3,288.8 	
		"/>
	<path class="st0" d="M493.8,309.5c4.5-15.7-3.2-32.5-21.2-32.5c-18,0-32.8,15.9-33.9,28.7c-1.1,12.7,1.4,34.1,28.9,34.1
		c13.9,0,21.8-7.5,21.8-7.5l-4.1-9.8c0,0-6.1,8.2-18,6.4c-11.8-1.8-11.6-14.1-10.5-19.1C461.7,309.7,493.8,309.5,493.8,309.5z
		 M471.1,286.5c12.1,0,7.5,14.1,7.5,14.1h-20.9C457.6,300.6,459,286.5,471.1,286.5z"/>
	<path class="st0" d="M528.2,278.3h-18.4L494,336.1h19.1c0,0,6-33.3,17.5-44.8c4.1-4.1,8-1.1,9.1,2.7s7.5,8,13.9,2.7
		c6.4-5.2,3.9-16.8-4.8-18.7c-8.6-1.8-19.1,6.4-23.2,11.8L528.2,278.3z"/>
	<path class="st1" d="M72.4,221.3l10-38.2c0,0,40.8,2.5,92.6,22.5s53.4,44.6,52.8,47.5c-0.6,2.9-8.8,39.4-8.8,39.4
		C217.6,243.4,114.6,224.2,72.4,221.3z"/>
	<path class="st0" d="M132.9,278.6l-9.6,37.8c0,0,83.7,12.8,95.6-23.9c-0.2-7-2.4-13.3-6.3-19.2C205.8,281,157.3,283.1,132.9,278.6z
		"/>
	<path class="st0" d="M193.5,335.9l-10,38.2c0,0-40.8-2.5-92.6-22.5S37.5,307,38.1,304.1c0.6-2.9,8.8-39.4,8.8-39.4
		C48.3,313.8,151.3,333,193.5,335.9z"/>
	<path class="st1" d="M133,278.6l9.6-37.8c0,0-83.7-12.8-95.6,23.9c0.2,7,2.4,13.3,6.3,19.2C60,276.2,108.5,274.1,133,278.6z"/>
</g>
</svg>
